<svg xmlns="http://www.w3.org/2000/svg" xmlns:xlink="http://www.w3.org/1999/xlink" width="1000" height="434.2"><rect width="1000" height="434.2" rx="0" ry="0" class="a"/><svg height="434.2" viewBox="0 0 100 43.42" width="1000" xmlns="http://www.w3.org/2000/svg" xmlns:xlink="http://www.w3.org/1999/xlink"><style>@keyframes h{0%{transform:translateX(0)}1.9%{transform:translateX(-100px)}4.5%{transform:translateX(-200px)}7.9%{transform:translateX(-300px)}8%{transform:translateX(-400px)}17.1%{transform:translateX(-500px)}25.7%{transform:translateX(-600px)}48.3%{transform:translateX(-700px)}48.4%{transform:translateX(-800px)}48.8%{transform:translateX(-900px)}51.1%{transform:translateX(-1000px)}53.3%{transform:translateX(-1100px)}to{transform:translateX(-1200px)}}.a{fill:#282d35}.d{fill:#b9c0cb;white-space:pre}</style><g font-family="Monaco,Consolas,Menlo,'Bitstream Vera Sans Mono','Powerline Symbols',monospace" font-size="1.67"><defs><symbol id="1">0<text y="1.67" style="white-space:pre" fill="#a8cc8c">info</text><text x="4.008" y="1.67" class="d">:</text><text x="6.012" y="1.67" class="d">Gitea.Declarative[0]</text></symbol><symbol id="2"><text x="6.012" y="1.67" class="d">Checking</text><text x="15.03" y="1.67" class="d">users...</text></symbol><symbol id="3"><text x="6.012" y="1.67" class="d">Checking</text><text x="15.03" y="1.67" class="d">repos...</text></symbol><symbol id="4">0<text y="1.67" style="white-space:pre" fill="#b9bfca">dbug</text><text x="4.008" y="1.67" class="d">:</text><text x="6.012" y="1.67" class="d">Gitea.Declarative[0]</text></symbol><symbol id="5"><text x="6.012" y="1.67" class="d">On</text><text x="9.018" y="1.67" class="d">patrick:another-repo,</text><text x="31.062" y="1.67" class="d">will</text><text x="36.072" y="1.67" class="d">set</text><text x="40.08" y="1.67" class="d">Description</text><text x="52.104" y="1.67" class="d">property</text></symbol><symbol id="6"><text x="6.012" y="1.67" class="d">On</text><text x="9.018" y="1.67" class="d">patrick:another-repo,</text><text x="31.062" y="1.67" class="d">will</text><text x="36.072" y="1.67" class="d">set</text><text x="40.08" y="1.67" class="d">Private</text><text x="48.096" y="1.67" class="d">property</text></symbol><symbol id="7"><text x="6.012" y="1.67" class="d">Editing</text><text x="14.028" y="1.67" class="d">repo</text><text x="19.038" y="1.67" class="d">patrick:another-repo</text></symbol><symbol id="8"><text x="6.012" y="1.67" class="d">Reconciling</text><text x="18.036" y="1.67" class="d">branch</text><text x="25.05" y="1.67" class="d">protection</text><text x="36.072" y="1.67" class="d">rule</text><text x="41.082" y="1.67" class="d">main</text><text x="46.092" y="1.67" class="d">on</text><text x="49.098" y="1.67" class="d">patrick:another-repo</text></symbol><symbol id="a"><path fill="transparent" d="M0 0h100v21H0z"/></symbol><symbol id="b"><path fill="#6f7683" d="M0 0h1.102v2.171H0z"/></symbol></defs><path class="a" d="M0 0h100v43.42H0z"/><g style="animation-duration:2.158873s;animation-iteration-count:infinite;animation-name:h;animation-timing-function:steps(1,end)"><svg width="1300"><svg><use xlink:href="#a"/><use xlink:href="#b" x="-.004"/></svg><svg x="100"><use xlink:href="#a"/><use xlink:href="#b" x="-.004"/></svg><svg x="200"><use xlink:href="#a"/><use xlink:href="#b" x="32.996"/><text y="1.67" class="d">querying</text><text x="9.018" y="1.67" class="d">info</text><text x="14.028" y="1.67" class="d">about</text><text x="20.04" y="1.67" class="d">missing</text><text x="28.056" y="1.67" class="d">paths</text></svg><svg x="300"><use xlink:href="#a"/><use xlink:href="#b" x="-.004"/></svg><svg x="400"><use xlink:href="#a"/><use xlink:href="#b" x="-.004"/></svg><svg x="500"><use xlink:href="#a"/><use xlink:href="#b" x="-.004" y="4.317"/><use xlink:href="#1"/><use xlink:href="#2" y="2.171"/></svg><svg x="600"><use xlink:href="#a"/><use xlink:href="#b" x="-.004" y="8.659"/><use xlink:href="#1"/><use xlink:href="#2" y="2.171"/><use xlink:href="#1" y="4.342"/><use xlink:href="#3" y="6.513"/></svg><svg x="700"><use xlink:href="#a"/><use xlink:href="#b" x="-.004" y="13.001"/><use xlink:href="#1"/><use xlink:href="#2" y="2.171"/><use xlink:href="#1" y="4.342"/><use xlink:href="#3" y="6.513"/><use xlink:href="#4" y="8.684"/><use xlink:href="#5" y="10.855"/></svg><svg x="800"><use xlink:href="#a"/><use xlink:href="#b" x="-.004" y="17.343"/><use xlink:href="#1"/><use xlink:href="#2" y="2.171"/><use xlink:href="#1" y="4.342"/><use xlink:href="#3" y="6.513"/><use xlink:href="#4" y="8.684"/><use xlink:href="#5" y="10.855"/><use xlink:href="#4" y="13.026"/><use xlink:href="#6" y="15.197"/></svg><svg x="900"><use xlink:href="#a"/><use xlink:href="#b" x="-.004" y="21.685"/><use xlink:href="#1"/><use xlink:href="#2" y="2.171"/><use xlink:href="#1" y="4.342"/><use xlink:href="#3" y="6.513"/><use xlink:href="#4" y="8.684"/><use xlink:href="#5" y="10.855"/><use xlink:href="#4" y="13.026"/><use xlink:href="#6" y="15.197"/><use xlink:href="#1" y="17.368"/><use xlink:href="#7" y="19.539"/></svg><svg x="1000"><use xlink:href="#a"/><use xlink:href="#b" x="-.004" y="26.027"/><use xlink:href="#1"/><use xlink:href="#2" y="2.171"/><use xlink:href="#1" y="4.342"/><use xlink:href="#3" y="6.513"/><use xlink:href="#4" y="8.684"/><use xlink:href="#5" y="10.855"/><use xlink:href="#4" y="13.026"/><use xlink:href="#6" y="15.197"/><use xlink:href="#1" y="17.368"/><use xlink:href="#7" y="19.539"/><use xlink:href="#1" y="21.71"/><use xlink:href="#8" y="23.881"/></svg><svg x="1100"><use xlink:href="#a"/><use xlink:href="#b" x=".996" y="26.027"/><use xlink:href="#1"/><use xlink:href="#2" y="2.171"/><use xlink:href="#1" y="4.342"/><use xlink:href="#3" y="6.513"/><use xlink:href="#4" y="8.684"/><use xlink:href="#5" y="10.855"/><use xlink:href="#4" y="13.026"/><use xlink:href="#6" y="15.197"/><use xlink:href="#1" y="17.368"/><use xlink:href="#7" y="19.539"/><use xlink:href="#1" y="21.71"/><use xlink:href="#8" y="23.881"/><text y="27.722" class="d">&gt;</text></svg><svg x="1200"><use xlink:href="#a"/><use xlink:href="#b" x="-.004" y="28.198"/><use xlink:href="#1"/><use xlink:href="#2" y="2.171"/><use xlink:href="#1" y="4.342"/><use xlink:href="#3" y="6.513"/><use xlink:href="#4" y="8.684"/><use xlink:href="#5" y="10.855"/><use xlink:href="#4" y="13.026"/><use xlink:href="#6" y="15.197"/><use xlink:href="#1" y="17.368"/><use xlink:href="#7" y="19.539"/><use xlink:href="#1" y="21.71"/><use xlink:href="#8" y="23.881"/><text y="27.722" class="d">&gt;\n&gt;</text></svg></svg></g></g></svg></svg>