<svg xmlns="http://www.w3.org/2000/svg" xmlns:xlink="http://www.w3.org/1999/xlink" width="1000" height="1584.83"><rect width="1000" height="1584.83" rx="0" ry="0" class="a"/><svg height="1584.83" viewBox="0 0 100 158.483" width="1000" xmlns="http://www.w3.org/2000/svg" xmlns:xlink="http://www.w3.org/1999/xlink"><style>@keyframes g{0%{transform:translateX(0)}2.1%{transform:translateX(-100px)}4.9%{transform:translateX(-200px)}8.7%{transform:translateX(-400px)}18.6%{transform:translateX(-500px)}26.6%{transform:translateX(-600px)}47.8%{transform:translateX(-700px)}48.5%{transform:translateX(-800px)}to{transform:translateX(-900px)}}.a{fill:#282d35}.d{fill:#b9c0cb;white-space:pre}</style><g font-family="Monaco,Consolas,Menlo,'Bitstream Vera Sans Mono','Powerline Symbols',monospace" font-size="1.67"><defs><symbol id="1">0<text y="1.67" style="white-space:pre" fill="#a8cc8c">info</text><text x="4.008" y="1.67" class="d">:</text><text x="6.012" y="1.67" class="d">Gitea.Declarative[0]</text></symbol><symbol id="2"><text x="6.012" y="1.67" class="d">Checking</text><text x="15.03" y="1.67" class="d">users...</text></symbol><symbol id="3"><text x="6.012" y="1.67" class="d">Checking</text><text x="15.03" y="1.67" class="d">repos...</text></symbol><symbol id="4"><text x="6.012" y="1.67" class="d">The</text><text x="10.02" y="1.67" class="d">repo</text><text x="15.03" y="1.67" class="d">patrick:another-repo</text><text x="36.072" y="1.67" class="d">is</text><text x="39.078" y="1.67" class="d">configured</text><text x="50.1" y="1.67" class="d">as</text><text x="53.106" y="1.67" class="d">Deleted,</text><text x="62.124" y="1.67" class="d">and</text><text x="66.132" y="1.67" class="d">is</text><text x="69.138" y="1.67" class="d">absent</text><text x="76.152" y="1.67" class="d">from</text><text x="81.162" y="1.67" class="d">the</text><text x="85.17" y="1.67" class="d">server.</text><text x="93.186" y="1.67" class="d">Remove</text></symbol><symbol id="5"><text y="1.67" class="d">this</text><text x="5.01" y="1.67" class="d">repo</text><text x="10.02" y="1.67" class="d">from</text><text x="15.03" y="1.67" class="d">configuration.</text></symbol><symbol id="6"><text y="1.67" class="d">&gt;</text></symbol><symbol id="a"><path fill="transparent" d="M0 0h100v73H0z"/></symbol><symbol id="b"><path fill="#6f7683" d="M0 0h1.102v2.171H0z"/></symbol></defs><path class="a" d="M0 0h100v158.483H0z"/><g style="animation-duration:1.9612020000000001s;animation-iteration-count:infinite;animation-name:g;animation-timing-function:steps(1,end)"><svg width="1000"><svg><use xlink:href="#a"/><use xlink:href="#b" x="-.004"/></svg><svg x="100"><use xlink:href="#a"/><use xlink:href="#b" x="-.004"/></svg><svg x="200"><use xlink:href="#a"/><use xlink:href="#b" x="32.996"/><text y="1.67" class="d">querying</text><text x="9.018" y="1.67" class="d">info</text><text x="14.028" y="1.67" class="d">about</text><text x="20.04" y="1.67" class="d">missing</text><text x="28.056" y="1.67" class="d">paths</text></svg><svg x="300"><use xlink:href="#a"/><use xlink:href="#b" x="-.004"/></svg><svg x="400"><use xlink:href="#a"/><use xlink:href="#b" x="-.004"/></svg><svg x="500"><use xlink:href="#a"/><use xlink:href="#b" x="-.004" y="4.317"/><use xlink:href="#1"/><use xlink:href="#2" y="2.171"/></svg><svg x="600"><use xlink:href="#a"/><use xlink:href="#b" x="-.004" y="8.659"/><use xlink:href="#1"/><use xlink:href="#2" y="2.171"/><use xlink:href="#1" y="4.342"/><use xlink:href="#3" y="6.513"/></svg><svg x="700"><use xlink:href="#a"/><use xlink:href="#b" x="-.004" y="15.172"/><use xlink:href="#1"/><use xlink:href="#2" y="2.171"/><use xlink:href="#1" y="4.342"/><use xlink:href="#3" y="6.513"/><use xlink:href="#1" y="8.684"/><use xlink:href="#4" y="10.855"/><use xlink:href="#5" y="13.026"/></svg><svg x="800"><use xlink:href="#a"/><use xlink:href="#b" x=".996" y="15.172"/><use xlink:href="#1"/><use xlink:href="#2" y="2.171"/><use xlink:href="#1" y="4.342"/><use xlink:href="#3" y="6.513"/><use xlink:href="#1" y="8.684"/><use xlink:href="#4" y="10.855"/><use xlink:href="#5" y="13.026"/><use xlink:href="#6" y="15.197"/></svg><svg x="900"><use xlink:href="#a"/><use xlink:href="#b" x="1.996" y="15.172"/><use xlink:href="#1"/><use xlink:href="#2" y="2.171"/><use xlink:href="#1" y="4.342"/><use xlink:href="#3" y="6.513"/><use xlink:href="#1" y="8.684"/><use xlink:href="#4" y="10.855"/><use xlink:href="#5" y="13.026"/><use xlink:href="#6" y="15.197"/></svg></svg></g></g></svg></svg>