<svg xmlns="http://www.w3.org/2000/svg" xmlns:xlink="http://www.w3.org/1999/xlink" width="1000" height="434.2"><rect width="1000" height="434.2" rx="0" ry="0" class="a"/><svg height="434.2" viewBox="0 0 100 43.42" width="1000" xmlns="http://www.w3.org/2000/svg" xmlns:xlink="http://www.w3.org/1999/xlink"><style>@keyframes g{0%{transform:translateX(0)}2%{transform:translateX(-100px)}4.8%{transform:translateX(-200px)}8.9%{transform:translateX(-400px)}19%{transform:translateX(-500px)}26.9%{transform:translateX(-600px)}49.4%{transform:translateX(-700px)}to{transform:translateX(-800px)}}.a{fill:#282d35}.d{fill:#b9c0cb;white-space:pre}</style><g font-family="Monaco,Consolas,Menlo,'Bitstream Vera Sans Mono','Powerline Symbols',monospace" font-size="1.67"><defs><symbol id="1">0<text y="1.67" style="white-space:pre" fill="#a8cc8c">info</text><text x="4.008" y="1.67" class="d">:</text><text x="6.012" y="1.67" class="d">Gitea.Declarative[0]</text></symbol><symbol id="2"><text x="6.012" y="1.67" class="d">Checking</text><text x="15.03" y="1.67" class="d">users...</text></symbol><symbol id="3"><text x="6.012" y="1.67" class="d">Checking</text><text x="15.03" y="1.67" class="d">repos...</text></symbol><symbol id="a"><path fill="transparent" d="M0 0h100v21H0z"/></symbol><symbol id="b"><path fill="#6f7683" d="M0 0h1.102v2.171H0z"/></symbol></defs><path class="a" d="M0 0h100v43.42H0z"/><g style="animation-duration:1.995494s;animation-iteration-count:infinite;animation-name:g;animation-timing-function:steps(1,end)"><svg width="900"><svg><use xlink:href="#a"/><use xlink:href="#b" x="-.004"/></svg><svg x="100"><use xlink:href="#a"/><use xlink:href="#b" x="-.004"/></svg><svg x="200"><use xlink:href="#a"/><use xlink:href="#b" x="32.996"/><text y="1.67" class="d">querying</text><text x="9.018" y="1.67" class="d">info</text><text x="14.028" y="1.67" class="d">about</text><text x="20.04" y="1.67" class="d">missing</text><text x="28.056" y="1.67" class="d">paths</text></svg><svg x="300"><use xlink:href="#a"/><use xlink:href="#b" x="-.004"/></svg><svg x="400"><use xlink:href="#a"/><use xlink:href="#b" x="-.004"/></svg><svg x="500"><use xlink:href="#a"/><use xlink:href="#b" x="-.004" y="4.317"/><use xlink:href="#1"/><use xlink:href="#2" y="2.171"/></svg><svg x="600"><use xlink:href="#a"/><use xlink:href="#b" x="-.004" y="8.659"/><use xlink:href="#1"/><use xlink:href="#2" y="2.171"/><use xlink:href="#1" y="4.342"/><use xlink:href="#3" y="6.513"/></svg><svg x="700"><use xlink:href="#a"/><use xlink:href="#b" x=".996" y="8.659"/><use xlink:href="#1"/><use xlink:href="#2" y="2.171"/><use xlink:href="#1" y="4.342"/><use xlink:href="#3" y="6.513"/><text y="10.354" class="d">&gt;</text></svg><svg x="800"><use xlink:href="#a"/><use xlink:href="#b" x="-.004" y="10.83"/><use xlink:href="#1"/><use xlink:href="#2" y="2.171"/><use xlink:href="#1" y="4.342"/><use xlink:href="#3" y="6.513"/><text y="10.354" class="d">&gt;\n&gt;</text></svg></svg></g></g></svg></svg>