<svg xmlns="http://www.w3.org/2000/svg" xmlns:xlink="http://www.w3.org/1999/xlink" width="1000" height="1584.83"><rect width="1000" height="1584.83" rx="0" ry="0" class="a"/><svg height="1584.83" viewBox="0 0 100 158.483" width="1000" xmlns="http://www.w3.org/2000/svg" xmlns:xlink="http://www.w3.org/1999/xlink"><style>@keyframes h{0%{transform:translateX(0)}1.9%{transform:translateX(-100px)}4.3%{transform:translateX(-200px)}8%{transform:translateX(-400px)}17%{transform:translateX(-500px)}24.1%{transform:translateX(-600px)}40%{transform:translateX(-700px)}43.6%{transform:translateX(-800px)}49.6%{transform:translateX(-900px)}49.7%{transform:translateX(-1100px)}49.8%{transform:translateX(-1300px)}49.9%{transform:translateX(-1500px)}50%{transform:translateX(-1700px)}50.1%{transform:translateX(-1900px)}52.3%{transform:translateX(-2000px)}54.4%{transform:translateX(-2100px)}to{transform:translateX(-2200px)}}.a{fill:#282d35}.d{fill:#b9c0cb;white-space:pre}</style><g font-family="Monaco,Consolas,Menlo,'Bitstream Vera Sans Mono','Powerline Symbols',monospace" font-size="1.67"><defs><symbol id="1">0<text y="1.67" style="white-space:pre" fill="#a8cc8c">info</text><text x="4.008" y="1.67" class="d">:</text><text x="6.012" y="1.67" class="d">Gitea.Declarative[0]</text></symbol><symbol id="2"><text x="6.012" y="1.67" class="d">Checking</text><text x="15.03" y="1.67" class="d">users...</text></symbol><symbol id="3"><text x="6.012" y="1.67" class="d">Checking</text><text x="15.03" y="1.67" class="d">repos...</text></symbol><symbol id="4">0<text y="1.67" style="white-space:pre" fill="#b9bfca">dbug</text><text x="4.008" y="1.67" class="d">:</text><text x="6.012" y="1.67" class="d">Gitea.Declarative[0]</text></symbol><symbol id="5"><text x="6.012" y="1.67" class="d">Creating</text><text x="15.03" y="1.67" class="d">patrick:another-repo</text></symbol><symbol id="6"><text x="6.012" y="1.67" class="d">Created</text><text x="14.028" y="1.67" class="d">repo</text><text x="19.038" y="1.67" class="d">patrick:</text><text x="28.056" y="1.67" class="d">another-repo</text></symbol><symbol id="7"><text x="6.012" y="1.67" class="d">On</text><text x="9.018" y="1.67" class="d">patrick:another-repo,</text><text x="31.062" y="1.67" class="d">will</text><text x="36.072" y="1.67" class="d">set</text><text x="40.08" y="1.67" class="d">AllowRebase</text><text x="52.104" y="1.67" class="d">property</text></symbol><symbol id="8"><text x="6.012" y="1.67" class="d">On</text><text x="9.018" y="1.67" class="d">patrick:another-repo,</text><text x="31.062" y="1.67" class="d">will</text><text x="36.072" y="1.67" class="d">set</text><text x="40.08" y="1.67" class="d">HasProjects</text><text x="52.104" y="1.67" class="d">property</text></symbol><symbol id="9"><text x="6.012" y="1.67" class="d">On</text><text x="9.018" y="1.67" class="d">patrick:another-repo,</text><text x="31.062" y="1.67" class="d">will</text><text x="36.072" y="1.67" class="d">set</text><text x="40.08" y="1.67" class="d">HasWiki</text><text x="48.096" y="1.67" class="d">property</text></symbol><symbol id="10"><text x="6.012" y="1.67" class="d">On</text><text x="9.018" y="1.67" class="d">patrick:another-repo,</text><text x="31.062" y="1.67" class="d">will</text><text x="36.072" y="1.67" class="d">set</text><text x="40.08" y="1.67" class="d">AllowMergeCommits</text><text x="58.116" y="1.67" class="d">property</text></symbol><symbol id="11"><text x="6.012" y="1.67" class="d">On</text><text x="9.018" y="1.67" class="d">patrick:another-repo,</text><text x="31.062" y="1.67" class="d">will</text><text x="36.072" y="1.67" class="d">set</text><text x="40.08" y="1.67" class="d">AllowRebaseExplicit</text><text x="60.12" y="1.67" class="d">property</text></symbol><symbol id="12"><text x="6.012" y="1.67" class="d">On</text><text x="9.018" y="1.67" class="d">patrick:another-repo,</text><text x="31.062" y="1.67" class="d">will</text><text x="36.072" y="1.67" class="d">set</text><text x="40.08" y="1.67" class="d">AllowRebaseUpdate</text><text x="58.116" y="1.67" class="d">property</text></symbol><symbol id="13"><text x="6.012" y="1.67" class="d">On</text><text x="9.018" y="1.67" class="d">patrick:another-repo,</text><text x="31.062" y="1.67" class="d">will</text><text x="36.072" y="1.67" class="d">set</text><text x="40.08" y="1.67" class="d">DefaultMergeStyle</text><text x="58.116" y="1.67" class="d">property</text></symbol><symbol id="14"><text x="6.012" y="1.67" class="d">On</text><text x="9.018" y="1.67" class="d">patrick:another-repo,</text><text x="31.062" y="1.67" class="d">will</text><text x="36.072" y="1.67" class="d">set</text><text x="40.08" y="1.67" class="d">IgnoreWhitespaceConflicts</text><text x="66.132" y="1.67" class="d">property</text></symbol><symbol id="15"><text x="6.012" y="1.67" class="d">On</text><text x="9.018" y="1.67" class="d">patrick:another-repo,</text><text x="31.062" y="1.67" class="d">will</text><text x="36.072" y="1.67" class="d">set</text><text x="40.08" y="1.67" class="d">DeleteBranchAfterMerge</text><text x="63.126" y="1.67" class="d">property</text></symbol><symbol id="16"><text x="6.012" y="1.67" class="d">Editing</text><text x="14.028" y="1.67" class="d">repo</text><text x="19.038" y="1.67" class="d">patrick:another-repo</text></symbol><symbol id="17"><text x="6.012" y="1.67" class="d">Creating</text><text x="15.03" y="1.67" class="d">branch</text><text x="22.044" y="1.67" class="d">protection</text><text x="33.066" y="1.67" class="d">rule</text><text x="38.076" y="1.67" class="d">main</text><text x="43.086" y="1.67" class="d">on</text><text x="46.092" y="1.67" class="d">patrick:another-repo</text></symbol><symbol id="a"><path fill="transparent" d="M0 0h100v73H0z"/></symbol><symbol id="b"><path fill="#6f7683" d="M0 0h1.102v2.171H0z"/></symbol></defs><path class="a" d="M0 0h100v158.483H0z"/><g style="animation-duration:2.213461s;animation-iteration-count:infinite;animation-name:h;animation-timing-function:steps(1,end)"><svg width="2300"><svg><use xlink:href="#a"/><use xlink:href="#b" x="-.004"/></svg><svg x="100"><use xlink:href="#a"/><use xlink:href="#b" x="-.004"/></svg><svg x="200"><use xlink:href="#a"/><use xlink:href="#b" x="32.996"/><text y="1.67" class="d">querying</text><text x="9.018" y="1.67" class="d">info</text><text x="14.028" y="1.67" class="d">about</text><text x="20.04" y="1.67" class="d">missing</text><text x="28.056" y="1.67" class="d">paths</text></svg><svg x="300"><use xlink:href="#a"/><use xlink:href="#b" x="-.004"/></svg><svg x="400"><use xlink:href="#a"/><use xlink:href="#b" x="-.004"/></svg><svg x="500"><use xlink:href="#a"/><use xlink:href="#b" x="-.004" y="4.317"/><use xlink:href="#1"/><use xlink:href="#2" y="2.171"/></svg><svg x="600"><use xlink:href="#a"/><use xlink:href="#b" x="-.004" y="8.659"/><use xlink:href="#1"/><use xlink:href="#2" y="2.171"/><use xlink:href="#1" y="4.342"/><use xlink:href="#3" y="6.513"/></svg><svg x="700"><use xlink:href="#a"/><use xlink:href="#b" x="-.004" y="13.001"/><use xlink:href="#1"/><use xlink:href="#2" y="2.171"/><use xlink:href="#1" y="4.342"/><use xlink:href="#3" y="6.513"/><use xlink:href="#4" y="8.684"/><use xlink:href="#5" y="10.855"/></svg><svg x="800"><use xlink:href="#a"/><use xlink:href="#b" x="-.004" y="17.343"/><use xlink:href="#1"/><use xlink:href="#2" y="2.171"/><use xlink:href="#1" y="4.342"/><use xlink:href="#3" y="6.513"/><use xlink:href="#4" y="8.684"/><use xlink:href="#5" y="10.855"/><use xlink:href="#1" y="13.026"/><use xlink:href="#6" y="15.197"/></svg><svg x="900"><use xlink:href="#a"/><use xlink:href="#b" x="-.004" y="21.685"/><use xlink:href="#1"/><use xlink:href="#2" y="2.171"/><use xlink:href="#1" y="4.342"/><use xlink:href="#3" y="6.513"/><use xlink:href="#4" y="8.684"/><use xlink:href="#5" y="10.855"/><use xlink:href="#1" y="13.026"/><use xlink:href="#6" y="15.197"/><use xlink:href="#4" y="17.368"/><use xlink:href="#7" y="19.539"/></svg><svg x="1000"><use xlink:href="#a"/><use xlink:href="#b" x="-.004" y="26.027"/><use xlink:href="#1"/><use xlink:href="#2" y="2.171"/><use xlink:href="#1" y="4.342"/><use xlink:href="#3" y="6.513"/><use xlink:href="#4" y="8.684"/><use xlink:href="#5" y="10.855"/><use xlink:href="#1" y="13.026"/><use xlink:href="#6" y="15.197"/><use xlink:href="#4" y="17.368"/><use xlink:href="#7" y="19.539"/><use xlink:href="#4" y="21.71"/><use xlink:href="#8" y="23.881"/></svg><svg x="1100"><use xlink:href="#a"/><use xlink:href="#b" x="-.004" y="30.369"/><use xlink:href="#1"/><use xlink:href="#2" y="2.171"/><use xlink:href="#1" y="4.342"/><use xlink:href="#3" y="6.513"/><use xlink:href="#4" y="8.684"/><use xlink:href="#5" y="10.855"/><use xlink:href="#1" y="13.026"/><use xlink:href="#6" y="15.197"/><use xlink:href="#4" y="17.368"/><use xlink:href="#7" y="19.539"/><use xlink:href="#4" y="21.71"/><use xlink:href="#8" y="23.881"/><use xlink:href="#4" y="26.052"/><use xlink:href="#9" y="28.223"/></svg><svg x="1200"><use xlink:href="#a"/><use xlink:href="#b" x="-.004" y="34.711"/><use xlink:href="#1"/><use xlink:href="#2" y="2.171"/><use xlink:href="#1" y="4.342"/><use xlink:href="#3" y="6.513"/><use xlink:href="#4" y="8.684"/><use xlink:href="#5" y="10.855"/><use xlink:href="#1" y="13.026"/><use xlink:href="#6" y="15.197"/><use xlink:href="#4" y="17.368"/><use xlink:href="#7" y="19.539"/><use xlink:href="#4" y="21.71"/><use xlink:href="#8" y="23.881"/><use xlink:href="#4" y="26.052"/><use xlink:href="#9" y="28.223"/><use xlink:href="#4" y="30.394"/><use xlink:href="#10" y="32.565"/></svg><svg x="1300"><use xlink:href="#a"/><use xlink:href="#b" x="-.004" y="39.053"/><use xlink:href="#1"/><use xlink:href="#2" y="2.171"/><use xlink:href="#1" y="4.342"/><use xlink:href="#3" y="6.513"/><use xlink:href="#4" y="8.684"/><use xlink:href="#5" y="10.855"/><use xlink:href="#1" y="13.026"/><use xlink:href="#6" y="15.197"/><use xlink:href="#4" y="17.368"/><use xlink:href="#7" y="19.539"/><use xlink:href="#4" y="21.71"/><use xlink:href="#8" y="23.881"/><use xlink:href="#4" y="26.052"/><use xlink:href="#9" y="28.223"/><use xlink:href="#4" y="30.394"/><use xlink:href="#10" y="32.565"/><use xlink:href="#4" y="34.736"/><use xlink:href="#11" y="36.907"/></svg><svg x="1400"><use xlink:href="#a"/><use xlink:href="#b" x="-.004" y="43.395"/><use xlink:href="#1"/><use xlink:href="#2" y="2.171"/><use xlink:href="#1" y="4.342"/><use xlink:href="#3" y="6.513"/><use xlink:href="#4" y="8.684"/><use xlink:href="#5" y="10.855"/><use xlink:href="#1" y="13.026"/><use xlink:href="#6" y="15.197"/><use xlink:href="#4" y="17.368"/><use xlink:href="#7" y="19.539"/><use xlink:href="#4" y="21.71"/><use xlink:href="#8" y="23.881"/><use xlink:href="#4" y="26.052"/><use xlink:href="#9" y="28.223"/><use xlink:href="#4" y="30.394"/><use xlink:href="#10" y="32.565"/><use xlink:href="#4" y="34.736"/><use xlink:href="#11" y="36.907"/><use xlink:href="#4" y="39.078"/><use xlink:href="#7" y="41.249"/></svg><svg x="1500"><use xlink:href="#a"/><use xlink:href="#b" x="-.004" y="47.737"/><use xlink:href="#1"/><use xlink:href="#2" y="2.171"/><use xlink:href="#1" y="4.342"/><use xlink:href="#3" y="6.513"/><use xlink:href="#4" y="8.684"/><use xlink:href="#5" y="10.855"/><use xlink:href="#1" y="13.026"/><use xlink:href="#6" y="15.197"/><use xlink:href="#4" y="17.368"/><use xlink:href="#7" y="19.539"/><use xlink:href="#4" y="21.71"/><use xlink:href="#8" y="23.881"/><use xlink:href="#4" y="26.052"/><use xlink:href="#9" y="28.223"/><use xlink:href="#4" y="30.394"/><use xlink:href="#10" y="32.565"/><use xlink:href="#4" y="34.736"/><use xlink:href="#11" y="36.907"/><use xlink:href="#4" y="39.078"/><use xlink:href="#7" y="41.249"/><use xlink:href="#4" y="43.42"/><use xlink:href="#12" y="45.591"/></svg><svg x="1600"><use xlink:href="#a"/><use xlink:href="#b" x="-.004" y="52.079"/><use xlink:href="#1"/><use xlink:href="#2" y="2.171"/><use xlink:href="#1" y="4.342"/><use xlink:href="#3" y="6.513"/><use xlink:href="#4" y="8.684"/><use xlink:href="#5" y="10.855"/><use xlink:href="#1" y="13.026"/><use xlink:href="#6" y="15.197"/><use xlink:href="#4" y="17.368"/><use xlink:href="#7" y="19.539"/><use xlink:href="#4" y="21.71"/><use xlink:href="#8" y="23.881"/><use xlink:href="#4" y="26.052"/><use xlink:href="#9" y="28.223"/><use xlink:href="#4" y="30.394"/><use xlink:href="#10" y="32.565"/><use xlink:href="#4" y="34.736"/><use xlink:href="#11" y="36.907"/><use xlink:href="#4" y="39.078"/><use xlink:href="#7" y="41.249"/><use xlink:href="#4" y="43.42"/><use xlink:href="#12" y="45.591"/><use xlink:href="#4" y="47.762"/><use xlink:href="#13" y="49.933"/></svg><svg x="1700"><use xlink:href="#a"/><use xlink:href="#b" x="-.004" y="56.421"/><use xlink:href="#1"/><use xlink:href="#2" y="2.171"/><use xlink:href="#1" y="4.342"/><use xlink:href="#3" y="6.513"/><use xlink:href="#4" y="8.684"/><use xlink:href="#5" y="10.855"/><use xlink:href="#1" y="13.026"/><use xlink:href="#6" y="15.197"/><use xlink:href="#4" y="17.368"/><use xlink:href="#7" y="19.539"/><use xlink:href="#4" y="21.71"/><use xlink:href="#8" y="23.881"/><use xlink:href="#4" y="26.052"/><use xlink:href="#9" y="28.223"/><use xlink:href="#4" y="30.394"/><use xlink:href="#10" y="32.565"/><use xlink:href="#4" y="34.736"/><use xlink:href="#11" y="36.907"/><use xlink:href="#4" y="39.078"/><use xlink:href="#7" y="41.249"/><use xlink:href="#4" y="43.42"/><use xlink:href="#12" y="45.591"/><use xlink:href="#4" y="47.762"/><use xlink:href="#13" y="49.933"/><use xlink:href="#4" y="52.104"/><use xlink:href="#14" y="54.275"/></svg><svg x="1800"><use xlink:href="#a"/><use xlink:href="#b" x="-.004" y="60.763"/><use xlink:href="#1"/><use xlink:href="#2" y="2.171"/><use xlink:href="#1" y="4.342"/><use xlink:href="#3" y="6.513"/><use xlink:href="#4" y="8.684"/><use xlink:href="#5" y="10.855"/><use xlink:href="#1" y="13.026"/><use xlink:href="#6" y="15.197"/><use xlink:href="#4" y="17.368"/><use xlink:href="#7" y="19.539"/><use xlink:href="#4" y="21.71"/><use xlink:href="#8" y="23.881"/><use xlink:href="#4" y="26.052"/><use xlink:href="#9" y="28.223"/><use xlink:href="#4" y="30.394"/><use xlink:href="#10" y="32.565"/><use xlink:href="#4" y="34.736"/><use xlink:href="#11" y="36.907"/><use xlink:href="#4" y="39.078"/><use xlink:href="#7" y="41.249"/><use xlink:href="#4" y="43.42"/><use xlink:href="#12" y="45.591"/><use xlink:href="#4" y="47.762"/><use xlink:href="#13" y="49.933"/><use xlink:href="#4" y="52.104"/><use xlink:href="#14" y="54.275"/><use xlink:href="#4" y="56.446"/><use xlink:href="#15" y="58.617"/></svg><svg x="1900"><use xlink:href="#a"/><use xlink:href="#b" x="-.004" y="65.105"/><use xlink:href="#1"/><use xlink:href="#2" y="2.171"/><use xlink:href="#1" y="4.342"/><use xlink:href="#3" y="6.513"/><use xlink:href="#4" y="8.684"/><use xlink:href="#5" y="10.855"/><use xlink:href="#1" y="13.026"/><use xlink:href="#6" y="15.197"/><use xlink:href="#4" y="17.368"/><use xlink:href="#7" y="19.539"/><use xlink:href="#4" y="21.71"/><use xlink:href="#8" y="23.881"/><use xlink:href="#4" y="26.052"/><use xlink:href="#9" y="28.223"/><use xlink:href="#4" y="30.394"/><use xlink:href="#10" y="32.565"/><use xlink:href="#4" y="34.736"/><use xlink:href="#11" y="36.907"/><use xlink:href="#4" y="39.078"/><use xlink:href="#7" y="41.249"/><use xlink:href="#4" y="43.42"/><use xlink:href="#12" y="45.591"/><use xlink:href="#4" y="47.762"/><use xlink:href="#13" y="49.933"/><use xlink:href="#4" y="52.104"/><use xlink:href="#14" y="54.275"/><use xlink:href="#4" y="56.446"/><use xlink:href="#15" y="58.617"/><use xlink:href="#1" y="60.788"/><use xlink:href="#16" y="62.959"/></svg><svg x="2000"><use xlink:href="#a"/><use xlink:href="#b" x="-.004" y="69.447"/><use xlink:href="#1"/><use xlink:href="#2" y="2.171"/><use xlink:href="#1" y="4.342"/><use xlink:href="#3" y="6.513"/><use xlink:href="#4" y="8.684"/><use xlink:href="#5" y="10.855"/><use xlink:href="#1" y="13.026"/><use xlink:href="#6" y="15.197"/><use xlink:href="#4" y="17.368"/><use xlink:href="#7" y="19.539"/><use xlink:href="#4" y="21.71"/><use xlink:href="#8" y="23.881"/><use xlink:href="#4" y="26.052"/><use xlink:href="#9" y="28.223"/><use xlink:href="#4" y="30.394"/><use xlink:href="#10" y="32.565"/><use xlink:href="#4" y="34.736"/><use xlink:href="#11" y="36.907"/><use xlink:href="#4" y="39.078"/><use xlink:href="#7" y="41.249"/><use xlink:href="#4" y="43.42"/><use xlink:href="#12" y="45.591"/><use xlink:href="#4" y="47.762"/><use xlink:href="#13" y="49.933"/><use xlink:href="#4" y="52.104"/><use xlink:href="#14" y="54.275"/><use xlink:href="#4" y="56.446"/><use xlink:href="#15" y="58.617"/><use xlink:href="#1" y="60.788"/><use xlink:href="#16" y="62.959"/><use xlink:href="#1" y="65.13"/><use xlink:href="#17" y="67.301"/></svg><svg x="2100"><use xlink:href="#a"/><use xlink:href="#b" x=".996" y="69.447"/><use xlink:href="#1"/><use xlink:href="#2" y="2.171"/><use xlink:href="#1" y="4.342"/><use xlink:href="#3" y="6.513"/><use xlink:href="#4" y="8.684"/><use xlink:href="#5" y="10.855"/><use xlink:href="#1" y="13.026"/><use xlink:href="#6" y="15.197"/><use xlink:href="#4" y="17.368"/><use xlink:href="#7" y="19.539"/><use xlink:href="#4" y="21.71"/><use xlink:href="#8" y="23.881"/><use xlink:href="#4" y="26.052"/><use xlink:href="#9" y="28.223"/><use xlink:href="#4" y="30.394"/><use xlink:href="#10" y="32.565"/><use xlink:href="#4" y="34.736"/><use xlink:href="#11" y="36.907"/><use xlink:href="#4" y="39.078"/><use xlink:href="#7" y="41.249"/><use xlink:href="#4" y="43.42"/><use xlink:href="#12" y="45.591"/><use xlink:href="#4" y="47.762"/><use xlink:href="#13" y="49.933"/><use xlink:href="#4" y="52.104"/><use xlink:href="#14" y="54.275"/><use xlink:href="#4" y="56.446"/><use xlink:href="#15" y="58.617"/><use xlink:href="#1" y="60.788"/><use xlink:href="#16" y="62.959"/><use xlink:href="#1" y="65.13"/><use xlink:href="#17" y="67.301"/><text y="71.142" class="d">&gt;</text></svg><svg x="2200"><use xlink:href="#a"/><use xlink:href="#b" x="-.004" y="71.618"/><use xlink:href="#1"/><use xlink:href="#2" y="2.171"/><use xlink:href="#1" y="4.342"/><use xlink:href="#3" y="6.513"/><use xlink:href="#4" y="8.684"/><use xlink:href="#5" y="10.855"/><use xlink:href="#1" y="13.026"/><use xlink:href="#6" y="15.197"/><use xlink:href="#4" y="17.368"/><use xlink:href="#7" y="19.539"/><use xlink:href="#4" y="21.71"/><use xlink:href="#8" y="23.881"/><use xlink:href="#4" y="26.052"/><use xlink:href="#9" y="28.223"/><use xlink:href="#4" y="30.394"/><use xlink:href="#10" y="32.565"/><use xlink:href="#4" y="34.736"/><use xlink:href="#11" y="36.907"/><use xlink:href="#4" y="39.078"/><use xlink:href="#7" y="41.249"/><use xlink:href="#4" y="43.42"/><use xlink:href="#12" y="45.591"/><use xlink:href="#4" y="47.762"/><use xlink:href="#13" y="49.933"/><use xlink:href="#4" y="52.104"/><use xlink:href="#14" y="54.275"/><use xlink:href="#4" y="56.446"/><use xlink:href="#15" y="58.617"/><use xlink:href="#1" y="60.788"/><use xlink:href="#16" y="62.959"/><use xlink:href="#1" y="65.13"/><use xlink:href="#17" y="67.301"/><text y="71.142" class="d">&gt;\n&gt;</text></svg></svg></g></g></svg></svg>